<svg width="64" height="64" viewBox="0 0 64 64" fill="none" xmlns="http://www.w3.org/2000/svg">
<path d="M54.5472 14.152C62.2864 33.0432 54.5472 43.2 48 48.8C49.6 54.4 43.2224 55.5552 40.8 52.8C33.6688 55.2592 19.1808 55.1792 8.80003 44.8C3.20003 39.2 7.56803 26.7424 22.4 18.4C35.2 11.2 48 7.19996 54.5472 14.152Z" fill="#FFDB1E"/>
<path d="M22.4 18.3999C33.3568 11.2047 46.44 8.19194 51.7888 12.8479C60 19.9999 34.4 36.1791 24.8 39.9999C14.4 44.1391 20 53.5999 14.4 53.5999C9.59998 53.5999 10.4 47.1999 6.10718 41.1999C3.57118 37.6559 9.85598 26.6367 22.4 18.3999Z" fill="white" stroke="#FFDB1E"/>
<path d="M45.656 14.0352C53.088 16.0352 45.072 23.1472 38.7712 27.6928C32.8 32 28.2016 34.4288 26.0944 35.4208C25.5088 35.6976 23.5072 31.8176 23.5072 33.8208C23.5072 34.488 22.3872 37.4016 22.0128 37.5424C19.8288 38.3616 15.256 39.6064 12.6768 39.6064C7.0912 39.6064 9.6 32 17.4992 25.0112C18.9264 23.7488 19.864 23.9792 21.152 23.9792C20.2928 22.7424 20.2976 22.512 21.7968 21.5056C28.464 17.024 36.8 14.032 40.3392 13.472C40.9248 13.4944 41.6512 14.032 41.6512 14.4784C42.3072 14.2544 45.0032 13.8576 45.656 14.0336V14.0352Z" fill="#FFE600"/>
<path d="M22.8752 26.384C24.4512 25.1888 25.5056 24.768 26.2336 22.3424C27.1392 22.536 27.5792 22.2144 28.2976 21.2208C28.816 21.9664 30.9488 22.1936 32.2224 22.3424C31.0784 23.064 30.5312 23.7056 29.8992 25.712C27.5568 24.7344 24.832 25.2288 22.8752 26.384Z" fill="white"/>
</svg>
